<?xml version="1.0" standalone="no"?>
<!DOCTYPE svg PUBLIC "-//W3C//DTD SVG 20010904//EN"
 "http://www.w3.org/TR/2001/REC-SVG-20010904/DTD/svg10.dtd">
<svg version="1.0" xmlns="http://www.w3.org/2000/svg"
 width="640.000000pt" height="1280.000000pt" viewBox="0 0 640.000000 1280.000000"
 preserveAspectRatio="xMidYMid meet">
<metadata>
Created by potrace 1.15, written by Peter Selinger 2001-2017
</metadata>
<g transform="translate(0.000000,1280.000000) scale(0.100000,-0.100000)"
fill="#2978D3" stroke="none">
<path d="M3565 12794 c-16 -3 -75 -14 -130 -26 -284 -60 -473 -166 -617 -346
-274 -344 -413 -741 -395 -1132 17 -356 154 -686 401 -965 58 -66 217 -208
224 -201 2 2 -45 64 -103 137 -186 229 -301 427 -374 644 -74 220 -67 455 19
626 102 203 263 346 545 484 212 104 369 151 805 240 124 26 239 54 255 64
l30 17 0 100 c0 91 -3 103 -30 153 -29 53 -93 110 -161 144 -67 34 -197 59
-319 62 -66 2 -133 1 -150 -1z"/>
<path d="M4264 11718 c36 -40 104 -122 149 -183 358 -474 450 -909 261 -1236
-48 -82 -205 -239 -309 -308 -108 -71 -334 -180 -477 -230 -213 -73 -389 -114
-718 -166 -262 -42 -351 -64 -455 -113 -308 -148 -592 -575 -686 -1032 -34
-164 -34 -406 0 -570 71 -347 232 -625 502 -866 46 -42 93 -80 103 -86 22 -12
24 -14 -112 148 -374 445 -509 910 -362 1240 89 199 284 373 575 514 258 125
497 188 1090 285 291 48 388 96 575 284 234 236 370 484 442 809 19 83 22 128
22 312 0 184 -3 229 -21 312 -65 287 -194 533 -386 735 -96 101 -233 223 -250
223 -5 0 20 -33 57 -72z"/>
<path d="M3340 11666 c0 -2 66 -39 148 -82 347 -185 651 -422 935 -729 71 -77
138 -146 148 -153 16 -11 19 -10 25 14 11 43 -13 173 -41 220 -84 144 -383
359 -721 520 -129 62 -478 214 -489 214 -3 0 -5 -2 -5 -4z"/>
<path d="M3210 11289 c260 -142 523 -313 662 -429 115 -95 284 -261 453 -443
70 -76 133 -136 139 -134 16 5 19 81 6 157 -15 84 -47 138 -134 223 -164 161
-346 281 -656 436 -203 101 -503 231 -532 231 -7 0 21 -19 62 -41z"/>
<path d="M3090 10886 c0 -3 64 -42 143 -87 324 -187 440 -280 761 -607 77 -78
143 -142 148 -142 11 0 10 108 -2 152 -15 53 -90 150 -157 203 -117 93 -537
329 -770 434 -112 51 -123 55 -123 47z"/>
<path d="M4167 8766 c10 -13 54 -66 97 -117 196 -231 345 -515 402 -764 21
-93 24 -253 6 -334 -61 -270 -262 -483 -613 -650 -315 -150 -496 -194 -962
-236 -92 -8 -186 -19 -210 -25 -131 -29 -275 -96 -375 -172 -176 -136 -358
-400 -456 -660 -81 -219 -112 -404 -103 -631 16 -418 174 -751 507 -1070 96
-93 140 -127 140 -109 0 4 -16 24 -36 43 -47 45 -230 285 -284 374 -53 85
-162 311 -185 382 -25 79 -45 217 -45 314 0 146 45 278 143 424 128 189 419
371 784 489 204 65 330 89 592 111 331 28 490 78 662 211 157 120 343 381 429
601 84 215 114 376 114 618 0 201 -14 314 -56 444 -84 265 -215 459 -466 698
-86 81 -121 105 -85 59z"/>
<path d="M2943 8641 c13 -146 142 -282 431 -454 135 -81 531 -265 543 -253 2
2 -43 29 -99 61 -228 128 -369 240 -659 521 -104 101 -196 184 -205 184 -14 0
-16 -9 -11 -59z"/>
<path d="M2604 8464 c-10 -53 4 -132 33 -193 31 -65 201 -240 316 -325 173
-129 381 -239 781 -415 302 -133 308 -130 36 19 -366 201 -652 428 -944 751
-200 221 -210 228 -222 163z"/>
<path d="M2495 8058 c-13 -88 23 -200 92 -285 46 -57 234 -197 395 -294 179
-108 710 -369 750 -369 21 0 -4 16 -170 109 -358 201 -524 331 -851 669 l-209
216 -7 -46z"/>
<path d="M3769 5643 c5 -10 43 -57 84 -105 205 -243 343 -489 417 -748 34
-116 39 -292 11 -400 -65 -259 -225 -438 -533 -600 -260 -136 -579 -232 -978
-295 -495 -77 -537 -94 -744 -295 -168 -163 -261 -291 -350 -482 -95 -203
-135 -378 -143 -618 -5 -149 -2 -193 16 -299 37 -218 113 -407 231 -581 99
-144 398 -460 408 -430 2 6 -25 41 -60 78 -167 177 -351 471 -431 687 -48 128
-61 201 -61 340 0 186 33 301 125 436 201 296 682 522 1335 628 463 76 564
106 719 216 85 60 222 207 295 316 70 105 179 322 209 418 73 226 97 619 51
826 -21 97 -73 241 -122 340 -95 188 -200 329 -366 486 -101 95 -134 119 -113
82z"/>
<path d="M2876 5551 c5 -6 79 -46 164 -91 312 -164 453 -274 825 -642 198
-197 251 -245 258 -232 14 25 -8 157 -37 220 -37 81 -180 220 -321 313 -111
74 -579 311 -778 395 -113 48 -128 52 -111 37z"/>
<path d="M2640 5225 c0 -3 64 -37 143 -76 409 -206 675 -415 1069 -846 72 -79
137 -143 144 -143 10 0 14 17 14 65 0 86 -17 161 -48 210 -60 94 -307 303
-492 415 -137 83 -421 222 -621 304 -176 72 -209 83 -209 71z"/>
<path d="M2680 4746 c0 -2 35 -23 78 -46 229 -124 463 -308 714 -561 103 -104
192 -189 199 -189 8 0 10 21 7 74 -6 93 -37 145 -148 248 -92 86 -288 204
-618 370 -195 99 -232 116 -232 104z"/>
<path d="M3690 2665 c0 -3 29 -39 65 -80 185 -212 331 -452 399 -657 41 -123
56 -211 56 -337 0 -181 -35 -296 -135 -437 -193 -271 -751 -531 -1330 -619
-60 -9 -135 -22 -165 -28 -72 -16 -83 -35 -76 -142 10 -156 90 -257 241 -309
158 -53 170 -56 265 -56 116 0 405 56 523 102 155 59 319 197 461 385 125 166
254 464 293 678 24 133 24 461 0 575 -40 189 -129 401 -234 559 -81 121 -363
406 -363 366z"/>
<path d="M2472 2537 c3 -67 9 -93 30 -128 48 -82 192 -199 400 -324 175 -105
630 -326 645 -312 5 5 -15 17 -187 112 -256 141 -413 264 -675 531 -110 112
-204 204 -209 204 -5 0 -7 -38 -4 -83z"/>
<path d="M2140 2371 c-21 -41 -4 -155 35 -231 22 -44 157 -184 250 -259 194
-159 439 -294 850 -468 166 -70 225 -94 225 -89 0 3 -87 53 -192 112 -106 59
-236 135 -288 169 -208 135 -458 357 -699 619 -84 91 -157 166 -161 166 -5 0
-14 -9 -20 -19z"/>
<path d="M2024 1944 c-12 -64 11 -162 52 -221 108 -156 360 -331 784 -542 205
-102 419 -195 427 -187 3 2 -35 25 -84 51 -418 224 -568 337 -909 681 -139
140 -254 254 -258 254 -3 0 -8 -16 -12 -36z"/>
</g>
</svg>
